<svg width="32" height="22" viewBox="0 0 32 22" fill="none" xmlns="http://www.w3.org/2000/svg">
<path d="M30.5455 0.818176H1.45455C0.651279 0.818176 0 1.46946 0 2.27272C0 3.07599 0.651279 3.72727 1.45455 3.72727H30.5455C31.3487 3.72727 32 3.07599 32 2.27272C32 1.46946 31.3487 0.818176 30.5455 0.818176ZM30.5455 9.54545H1.45455C0.651279 9.54545 0 10.1967 0 11C0 11.8033 0.651279 12.4545 1.45455 12.4545H30.5455C31.3487 12.4545 32 11.8033 32 11C32 10.1967 31.3487 9.54545 30.5455 9.54545ZM30.5455 18.2727H1.45455C0.651279 18.2727 0 18.924 0 19.7273C0 20.5305 0.651279 21.1818 1.45455 21.1818H30.5455C31.3487 21.1818 32 20.5305 32 19.7273C32 18.924 31.3487 18.2727 30.5455 18.2727Z" fill="#292929"/>
</svg>
