<svg width="20" height="21" viewBox="0 0 20 21" fill="none" xmlns="http://www.w3.org/2000/svg">
<path d="M7.28099 12.4421C7.28099 13.5147 8.15051 14.3842 9.22308 14.3842H10.7768C11.8493 14.3842 12.7188 13.5147 12.7188 12.4421C12.7188 11.3695 11.8493 10.5 10.7768 10.5H9.22308C8.15051 10.5 7.28099 9.6305 7.28099 8.55792C7.28099 7.48534 8.15051 6.61583 9.22308 6.61583H10.7768C11.8493 6.61583 12.7188 7.48534 12.7188 8.55792M9.99992 6.61583V4.28532M9.99992 16.7147V14.3842M18.4534 2.22158L14.584 2.56012M14.584 2.56012L14.9226 6.42951M14.584 2.56012C17.3235 4.14518 19.1666 7.10737 19.1666 10.5C19.1666 15.5626 15.0625 19.6667 9.99992 19.6667M1.54643 18.7784L5.41581 18.4399M5.41581 18.4399L5.07726 14.5705M5.41581 18.4399C2.67633 16.8548 0.833252 13.8926 0.833252 10.5C0.833252 5.43741 4.93732 1.33334 9.99992 1.33334" stroke="white" stroke-width="1.55367" stroke-miterlimit="10"/>
</svg>
