<svg width="35" height="36" viewBox="0 0 35 36" fill="none" xmlns="http://www.w3.org/2000/svg">
<path d="M20.2 20.7C18 22.97 17.84 25.8 17.65 32C23.43 32 27.42 31.98 29.48 29.98C31.48 27.92 31.5 23.74 31.5 18.15C25.3 18.35 22.47 18.5 20.2 20.7ZM3.5 18.15C3.5 23.74 3.52 27.92 5.52 29.98C7.58 31.98 11.57 32 17.35 32C17.15 25.8 17 22.97 14.8 20.7C12.53 18.5 9.7 18.34 3.5 18.15ZM17.35 4C11.58 4 7.58 4.02 5.52 6.02C3.52 8.08 3.5 12.26 3.5 17.85C9.7 17.65 12.53 17.5 14.8 15.3C17 13.03 17.16 10.2 17.35 4ZM20.2 15.3C18 13.03 17.84 10.2 17.65 4C23.43 4 27.42 4.02 29.48 6.02C31.48 8.08 31.5 12.26 31.5 17.85C25.3 17.65 22.47 17.5 20.2 15.3Z" fill="white"/>
<path d="M31.5 18.15V17.85C25.3 17.65 22.47 17.5 20.2 15.3C18 13.03 17.84 10.2 17.65 4H17.35C17.15 10.2 17 13.03 14.8 15.3C12.53 17.5 9.7 17.66 3.5 17.85V18.15C9.7 18.35 12.53 18.5 14.8 20.7C17 22.97 17.16 25.8 17.35 32H17.65C17.85 25.8 18 22.97 20.2 20.7C22.47 18.5 25.3 18.34 31.5 18.15Z" fill="#292929"/>
</svg>
