<svg width="73" height="24" viewBox="0 0 73 24" fill="none" xmlns="http://www.w3.org/2000/svg">
<path d="M31.2463 12.6301C31.2463 16.083 28.5451 18.6274 25.2301 18.6274C21.9151 18.6274 19.2139 16.083 19.2139 12.6301C19.2139 9.15287 21.9151 6.63281 25.2301 6.63281C28.5451 6.63281 31.2463 9.15287 31.2463 12.6301ZM28.6127 12.6301C28.6127 10.4724 27.0471 8.99604 25.2301 8.99604C23.4131 8.99604 21.8475 10.4724 21.8475 12.6301C21.8475 14.7662 23.4131 16.2642 25.2301 16.2642C27.0471 16.2642 28.6127 14.7635 28.6127 12.6301Z" fill="#EA4335"/>
<path d="M44.2251 12.6301C44.2251 16.083 41.5239 18.6274 38.2089 18.6274C34.8938 18.6274 32.1926 16.083 32.1926 12.6301C32.1926 9.15557 34.8938 6.63281 38.2089 6.63281C41.5239 6.63281 44.2251 9.15287 44.2251 12.6301ZM41.5915 12.6301C41.5915 10.4724 40.0259 8.99604 38.2089 8.99604C36.3918 8.99604 34.8262 10.4724 34.8262 12.6301C34.8262 14.7662 36.3918 16.2642 38.2089 16.2642C40.0259 16.2642 41.5915 14.7635 41.5915 12.6301Z" fill="#FBBC05"/>
<path d="M56.6633 6.99514V17.7622C56.6633 22.1912 54.0513 24.0001 50.9635 24.0001C48.0568 24.0001 46.3073 22.056 45.6476 20.4661L47.9405 19.5116C48.3488 20.4877 49.3492 21.6396 50.9608 21.6396C52.9373 21.6396 54.1622 20.4201 54.1622 18.1245V17.2619H54.0703C53.4808 17.9893 52.3452 18.6247 50.9121 18.6247C47.9134 18.6247 45.1663 16.0127 45.1663 12.6517C45.1663 9.26643 47.9134 6.63281 50.9121 6.63281C52.3425 6.63281 53.4781 7.26823 54.0703 7.97396H54.1622V6.99784H56.6633V6.99514ZM54.3488 12.6517C54.3488 10.54 52.94 8.99604 51.1473 8.99604C49.3303 8.99604 47.808 10.54 47.808 12.6517C47.808 14.7419 49.3303 16.2642 51.1473 16.2642C52.94 16.2642 54.3488 14.7419 54.3488 12.6517Z" fill="#4285F4"/>
<path d="M60.7867 0.684082V18.2596H58.218V0.684082H60.7867Z" fill="#34A853"/>
<path d="M70.7966 14.6037L72.8407 15.9665C72.181 16.9426 70.5911 18.6245 67.8439 18.6245C64.437 18.6245 61.8926 15.9909 61.8926 12.6272C61.8926 9.06071 64.4586 6.62988 67.5492 6.62988C70.6614 6.62988 72.1837 9.10667 72.6812 10.4451L72.9543 11.1265L64.9372 14.4469C65.551 15.6502 66.5055 16.264 67.8439 16.264C69.1851 16.264 70.1152 15.6042 70.7966 14.6037ZM64.5046 12.446L69.8637 10.2207C69.569 9.4717 68.6821 8.94985 67.6384 8.94985C66.3 8.94985 64.437 10.1315 64.5046 12.446Z" fill="#EA4335"/>
<path d="M9.49045 11.0699V8.52546H18.0646C18.1484 8.9689 18.1917 9.49347 18.1917 10.0613C18.1917 11.9703 17.6698 14.3308 15.988 16.0126C14.3521 17.7161 12.262 18.6246 9.49315 18.6246C4.36111 18.6246 0.0456543 14.4443 0.0456543 9.3123C0.0456543 4.18026 4.36111 0 9.49315 0C12.3323 0 14.3548 1.11402 15.8744 2.56602L14.079 4.36142C12.9893 3.33934 11.513 2.54439 9.49045 2.54439C5.74282 2.54439 2.81177 5.56467 2.81177 9.3123C2.81177 13.0599 5.74282 16.0802 9.49045 16.0802C11.9213 16.0802 13.3057 15.1041 14.1926 14.2172C14.9118 13.498 15.385 12.4705 15.5716 11.0671L9.49045 11.0699Z" fill="#4285F4"/>
</svg>
