<svg width="36" height="15" viewBox="0 0 36 15" fill="none" xmlns="http://www.w3.org/2000/svg">
<path d="M0.0291939 3.80548L4.21809 3.20725C4.98186 2.73805 5.7747 2.31791 6.59181 1.94938C9.29081 0.726868 12.2202 0.096079 15.1831 0.0993781H15.9109C19.4079 0.101937 22.8487 0.979362 25.9199 2.65174L28.0339 3.80497C30.5086 3.83297 32.9353 4.49083 35.0853 5.7165C35.5145 5.96266 35.8713 6.31759 36.1197 6.74554C36.368 7.17349 36.4992 7.65934 36.5 8.15413V11.8158C36.5 11.8968 36.4841 11.9771 36.4531 12.0519C36.4221 12.1267 36.3766 12.1947 36.3194 12.252C36.2621 12.3093 36.1941 12.3547 36.1192 12.3857C36.0444 12.4167 35.9642 12.4326 35.8832 12.4326H33.8126C33.1392 14.3539 31.0357 15.3656 29.1144 14.6921C28.5923 14.5092 28.1182 14.2111 27.727 13.82C27.3359 13.4288 27.0378 12.9546 26.8548 12.4326H10.3792C9.70578 14.3539 7.60231 15.3656 5.68101 14.6921C5.15898 14.5092 4.68482 14.2111 4.29367 13.8199C3.90253 13.4288 3.60442 12.9546 3.42144 12.4326H3.20014C3.12158 12.4326 3.04379 12.4178 2.97082 12.3887L0.9734 11.5872C0.537521 11.4146 0.163788 11.1147 -0.0990448 10.7265C-0.361877 10.3383 -0.501598 9.87985 -0.499985 9.41104V4.41592C-0.499935 4.26753 -0.446407 4.12413 -0.349216 4.012C-0.252029 3.89988 -0.117683 3.8266 0.0291939 3.80548ZM27.9166 11.6927C28.1895 13.0273 29.4925 13.8883 30.8272 13.6155C32.162 13.3427 33.023 12.0397 32.7502 10.7048C32.4772 9.37012 31.1742 8.50923 29.8395 8.78198C28.6911 9.01663 27.8665 10.0271 27.8668 11.1994C27.8668 11.3651 27.8835 11.5304 27.9166 11.6927ZM16.7667 11.1994H26.6335C26.6335 9.15583 28.2899 7.49925 30.3333 7.49925C32.3769 7.49925 34.0335 9.1559 34.0335 11.1994H35.2667V8.1542C35.2663 7.87665 35.1928 7.60409 35.0534 7.36406C34.9141 7.12403 34.7138 6.92502 34.473 6.78713C32.4608 5.63819 30.1839 5.03352 27.8667 5.03271H16.7667L16.7667 11.1994ZM16.7667 3.79938H25.4481L25.3292 3.73443C22.6929 2.30167 19.7644 1.48947 16.7667 1.35969L16.7667 3.79938ZM15.5334 1.33258H15.1844C12.6993 1.3298 10.2366 1.80163 7.9285 2.72272L9.00522 3.79944H15.5335L15.5334 1.33258ZM4.48332 11.6927C4.75607 13.0273 6.0591 13.8883 7.39405 13.6155C8.72869 13.3427 9.58964 12.0397 9.31683 10.7048C9.04409 9.37012 7.7408 8.50923 6.40617 8.78198C5.25763 9.01663 4.43316 10.0271 4.43341 11.1994C4.43345 11.3651 4.45017 11.5304 4.48332 11.6927ZM0.733349 5.64918H2.58335V6.88271H0.733349V9.41104C0.73259 9.63304 0.79879 9.85011 0.923309 10.0339C1.04783 10.2177 1.22488 10.3597 1.43134 10.4413L3.20014 11.1516C3.20014 11.0949 3.2074 11.0387 3.21113 10.9821C3.21492 10.9253 3.2162 10.8588 3.22218 10.7971C3.22847 10.7354 3.24081 10.6736 3.25057 10.6121C3.26059 10.5505 3.26791 10.4887 3.28012 10.4327C3.29245 10.3765 3.3105 10.3143 3.32656 10.2556C3.34262 10.1972 3.35495 10.1379 3.37345 10.0804C3.39182 10.0233 3.41418 9.96829 3.43499 9.91208C3.45606 9.85613 3.47514 9.79813 3.49666 9.7425C3.51831 9.687 3.5474 9.63651 3.57322 9.58409C3.59911 9.53168 3.62442 9.47425 3.65327 9.42126C3.68237 9.36832 3.715 9.32317 3.74287 9.27396C3.7705 9.2245 3.80435 9.16836 3.83949 9.11787C3.87481 9.06725 3.90745 9.0273 3.94136 8.98169C3.97522 8.93602 4.01363 8.88231 4.05301 8.83484C4.09238 8.78744 4.12925 8.75031 4.16767 8.71138C4.20582 8.67278 4.24848 8.62036 4.29087 8.57713C4.33353 8.53403 4.3754 8.49992 4.41787 8.46176C4.46052 8.4236 4.50619 8.37845 4.55308 8.3383C4.59978 8.29841 4.64745 8.26751 4.69408 8.23237C4.74097 8.1973 4.78793 8.15966 4.83714 8.12677C4.8866 8.09414 4.94203 8.0653 4.99496 8.03067C5.04815 7.99598 5.09132 7.96894 5.14123 7.94261C5.19121 7.91601 5.25339 7.88813 5.31017 7.86102C5.36683 7.83392 5.41121 7.80983 5.46369 7.7878C5.51611 7.76544 5.58716 7.74212 5.64863 7.72003C5.7103 7.69767 5.75051 7.68039 5.80293 7.66382C5.8732 7.64224 5.94521 7.62669 6.01696 7.60883C6.06385 7.59785 6.10882 7.58301 6.15622 7.57325C6.23202 7.5577 6.30975 7.54916 6.38683 7.53785C6.43244 7.53182 6.47612 7.52179 6.52179 7.51755C6.64678 7.50491 6.77233 7.49855 6.89796 7.49848C8.94066 7.5004 10.596 9.15577 10.5981 11.1985H15.5332V5.03252H8.75001C8.66906 5.03254 8.58889 5.0166 8.5141 4.98561C8.43931 4.95461 8.37137 4.90917 8.31417 4.85189L6.71501 3.25273C6.0438 3.57217 5.39113 3.9292 4.76012 4.32213C4.68734 4.36761 4.6059 4.39745 4.52097 4.40975L0.733284 4.95049L0.733349 5.64918Z" fill="white" fill-opacity="0.5"/>
</svg>
