<svg width="31" height="31" viewBox="0 0 31 31" fill="none" xmlns="http://www.w3.org/2000/svg">
<path d="M21.3531 10.1469L19.8527 8.64655C19.759 8.55279 19.6318 8.50012 19.4992 8.50012C19.3666 8.50012 19.2394 8.55279 19.1456 8.64655L13.4978 14.2943L11.851 12.6474C11.7572 12.5537 11.63 12.501 11.4974 12.501C11.3648 12.501 11.2376 12.5537 11.1438 12.6474L9.6435 14.1478C9.54974 14.2415 9.49707 14.3687 9.49707 14.5013C9.49707 14.6339 9.54974 14.7611 9.6435 14.8549L13.1443 18.3557C13.2381 18.4494 13.3652 18.5021 13.4978 18.5021C13.6305 18.5021 13.7576 18.4494 13.8514 18.3557L21.3531 10.854C21.4468 10.7603 21.4995 10.6331 21.4995 10.5005C21.4995 10.3678 21.4468 10.2407 21.3531 10.1469ZM13.4978 17.295L10.7042 14.5013L11.4974 13.7082L13.1443 15.355C13.2381 15.4488 13.3652 15.5015 13.4978 15.5015C13.6305 15.5015 13.7576 15.4488 13.8514 15.355L19.4992 9.70728L20.2923 10.5005L13.4978 17.295Z" fill="white" fill-opacity="0.5"/>
<path d="M6.08681 20.6582C5.3688 18.8674 4.99862 16.9563 4.99607 15.0269V4.78869C8.72222 4.69639 12.3529 3.59111 15.4984 1.59148C18.6439 3.59111 22.2746 4.69639 26.0007 4.78869V15.0269C25.9962 17.7525 25.2612 20.4271 23.8722 22.7722L24.9185 22.9332C26.2773 20.5192 26.9943 17.7971 27.0009 15.0269V4.29458C27.0009 4.16194 26.9482 4.03473 26.8544 3.94094C26.7607 3.84716 26.6334 3.79447 26.5008 3.79447C22.7815 3.79332 19.14 2.72951 16.005 0.72829L15.7669 0.578257C15.6867 0.527168 15.5935 0.500031 15.4984 0.500031C15.4032 0.500031 15.3101 0.527168 15.2298 0.578257L14.9918 0.72829C11.8569 2.72969 8.21527 3.79351 4.49596 3.79447C4.36332 3.79447 4.23612 3.84716 4.14233 3.94094C4.04854 4.03473 3.99585 4.16194 3.99585 4.29458V15.0269C3.99932 17.1297 4.41332 19.2116 5.21462 21.1558L6.08681 20.6582Z" fill="white" fill-opacity="0.5"/>
<path d="M24.0001 15.0269V7.09968C24 6.97835 23.9559 6.86118 23.8758 6.77C23.7958 6.67882 23.6853 6.61984 23.565 6.60407C20.8208 6.24385 18.1669 5.37911 15.7373 4.05351C15.6639 4.01359 15.5817 3.99268 15.4982 3.99268C15.4147 3.99268 15.3325 4.01359 15.2592 4.05351C12.8294 5.37933 10.1753 6.24408 7.43093 6.60407C7.31072 6.61996 7.20038 6.67898 7.12043 6.77014C7.04048 6.86131 6.99638 6.97842 6.99634 7.09968V15.0269C6.99828 16.6103 7.2849 18.1805 7.84252 19.6625C8.14672 19.5238 8.46404 19.4159 8.78973 19.3404C8.26687 17.9623 7.99813 16.5009 7.99656 15.0269V7.53278C10.6191 7.13858 13.1557 6.30201 15.4982 5.05873C17.8407 6.30201 20.3773 7.13858 22.9999 7.53278V15.0269C22.9942 17.4115 22.2933 19.7426 20.9829 21.7349L21.8596 22.213C23.25 20.0736 23.9932 17.5784 24.0001 15.0269Z" fill="white" fill-opacity="0.5"/>
<path d="M30.3812 26.637L29.9841 25.3537C29.9762 25.3278 29.9661 25.3025 29.9541 25.2782C29.8044 25.0488 29.6016 24.8589 29.3629 24.7248C29.1241 24.5906 28.8565 24.5161 28.5828 24.5075L22.2184 23.5298C22.1872 23.525 22.1571 23.5148 22.1293 23.4998L17.4723 20.9582C15.9077 20.2825 14.2144 19.9563 12.5107 20.0025C9.13397 20.0025 8.26728 20.5442 7.8972 20.7757L5.11659 22.3676C4.96164 22.4564 4.7861 22.5032 4.60747 22.5031H3.01362C1.9904 22.5031 1.26324 23.1962 1.02869 24.3825L0.523574 26.4039C0.480779 26.6363 0.490883 26.8752 0.553135 27.1031C0.615387 27.331 0.728186 27.5419 0.883153 27.7202C1.08236 27.9607 1.33119 28.1553 1.61258 28.2906C1.89398 28.426 2.20131 28.4989 2.51351 28.5044H4.06385C4.18007 29.0681 4.48716 29.5744 4.93332 29.9379C5.37947 30.3015 5.93737 30.5 6.51289 30.5C7.08841 30.5 7.64632 30.3015 8.09247 29.9379C8.53863 29.5744 8.84572 29.0681 8.96194 28.5044H21.5587C21.6749 29.0681 21.982 29.5744 22.4282 29.9379C22.8743 30.3015 23.4322 30.5 24.0078 30.5C24.5833 30.5 25.1412 30.3015 25.5873 29.9379C26.0335 29.5744 26.3406 29.0681 26.4568 28.5044H29.1824C29.4034 28.5046 29.6209 28.4492 29.815 28.3434C30.009 28.2375 30.1733 28.0846 30.2928 27.8987C30.4123 27.7127 30.4832 27.4998 30.4989 27.2793C30.5146 27.0589 30.4746 26.838 30.3827 26.637H30.3812ZM19.9994 23.4778C17.6681 23.4416 15.3376 23.3671 13.0088 23.2543V21.0123C14.3775 21.0227 15.7308 21.3028 16.9912 21.8364L19.9994 23.4778ZM8.42732 21.6239C8.68337 21.4639 9.34302 21.0533 12.0106 21.0073V23.2032C10.0977 23.0957 8.16976 22.9502 6.46338 22.7531L8.42732 21.6239ZM6.51239 29.5046C6.21566 29.5046 5.92558 29.4166 5.67886 29.2518C5.43213 29.0869 5.23983 28.8526 5.12627 28.5784C5.01271 28.3043 4.983 28.0026 5.04089 27.7116C5.09878 27.4206 5.24168 27.1532 5.4515 26.9434C5.66133 26.7336 5.92866 26.5907 6.21969 26.5328C6.51073 26.4749 6.8124 26.5046 7.08655 26.6182C7.3607 26.7317 7.59502 26.924 7.75987 27.1708C7.92473 27.4175 8.01272 27.7076 8.01272 28.0043C8.01272 28.4022 7.85465 28.7838 7.57329 29.0652C7.29192 29.3466 6.91031 29.5046 6.51239 29.5046ZM24.0078 29.5046C23.711 29.5046 23.4209 29.4166 23.1742 29.2518C22.9275 29.0869 22.7352 28.8526 22.6216 28.5784C22.5081 28.3043 22.4784 28.0026 22.5362 27.7116C22.5941 27.4206 22.737 27.1532 22.9469 26.9434C23.1567 26.7336 23.424 26.5907 23.7151 26.5328C24.0061 26.4749 24.3078 26.5046 24.5819 26.6182C24.8561 26.7317 25.0904 26.924 25.2552 27.1708C25.4201 27.4175 25.5081 27.7076 25.5081 28.0043C25.5081 28.4022 25.35 28.7838 25.0686 29.0652C24.7873 29.3466 24.4057 29.5046 24.0078 29.5046ZM29.4515 27.3542C29.4232 27.4004 29.3834 27.4386 29.336 27.4649C29.2885 27.4912 29.2351 27.5047 29.1809 27.5042H26.4553C26.3391 26.9405 26.032 26.4342 25.5858 26.0706C25.1397 25.7071 24.5818 25.5086 24.0063 25.5086C23.4307 25.5086 22.8728 25.7071 22.4267 26.0706C21.9805 26.4342 21.6734 26.9405 21.5572 27.5042H8.96144C8.84522 26.9405 8.53813 26.4342 8.09197 26.0706C7.64582 25.7071 7.08791 25.5086 6.51239 25.5086C5.93687 25.5086 5.37897 25.7071 4.93282 26.0706C4.48666 26.4342 4.17957 26.9405 4.06335 27.5042H2.51301C2.349 27.4986 2.18798 27.4587 2.0404 27.3869C1.89282 27.3152 1.76197 27.2132 1.65632 27.0876C1.59866 27.0261 1.55477 26.9531 1.52761 26.8733C1.50044 26.7935 1.49061 26.7089 1.49879 26.625L2.0039 24.6035C2.14993 23.8749 2.48951 23.5033 3.01362 23.5033H4.54146C10.0957 24.3745 19.7073 24.487 21.9953 24.5035C22.0183 24.508 28.4292 25.4997 28.4292 25.4997C28.6508 25.5117 28.8645 25.5859 29.0459 25.7138L29.4349 26.9696C29.4429 26.9956 29.4531 27.0209 29.4655 27.0451C29.4899 27.0935 29.5015 27.1473 29.499 27.2015C29.4965 27.2556 29.4802 27.3082 29.4515 27.3542Z" fill="white" fill-opacity="0.5"/>
</svg>
