<svg width="22" height="22" viewBox="0 0 22 22" fill="none" xmlns="http://www.w3.org/2000/svg">
<g clip-path="url(#clip0_232_2447)">
<path d="M12.3117 0C17.6537 0 22 4.34633 22 9.68834C22 15.0306 17.6537 19.3767 12.3117 19.3767C6.96936 19.3767 2.62333 15.0306 2.62333 9.68834C2.62333 4.34633 6.96936 0 12.3117 0ZM12.3117 17.5881C16.6675 17.5881 20.2114 14.0443 20.2114 9.68838C20.2114 5.33251 16.6675 1.78862 12.3117 1.78862C7.95579 1.78862 4.41194 5.33247 4.41194 9.68834C4.41194 14.0442 7.95579 17.5881 12.3117 17.5881Z" fill="#292929"/>
<path d="M0.262036 20.4734L5.38941 15.346C5.73879 14.9967 6.3046 14.9967 6.65398 15.346C7.00336 15.6951 7.00336 16.2615 6.65398 16.6106L1.52661 21.738C1.44368 21.8212 1.34513 21.8872 1.23662 21.9321C1.12811 21.9771 1.01178 22.0002 0.894321 22C0.776867 22.0001 0.660547 21.977 0.552041 21.9321C0.443535 21.8871 0.34498 21.8212 0.262036 21.738C-0.0873427 21.3889 -0.0873427 20.8225 0.262036 20.4734Z" fill="#292929"/>
</g>
<defs>
<clipPath id="clip0_232_2447">
<rect width="22" height="22" fill="white" transform="matrix(-1 0 0 1 22 0)"/>
</clipPath>
</defs>
</svg>
