<svg width="35" height="36" viewBox="0 0 35 36" fill="none" xmlns="http://www.w3.org/2000/svg">
<path d="M19.2165 27.7183C19.2165 27.7183 19.8481 27.6494 20.1717 27.3083C20.4678 26.9957 20.4575 26.4059 20.4575 26.4059C20.4575 26.4059 20.4182 23.6518 21.7209 23.2452C23.0048 22.8453 24.6533 25.9085 26.4028 27.0865C27.7244 27.977 28.7275 27.7821 28.7275 27.7821L33.4026 27.7183C33.4026 27.7183 35.8471 27.5704 34.6882 25.6834C34.5923 25.5288 34.012 24.287 31.2131 21.7362C28.2807 19.0662 28.6744 19.498 32.2043 14.8787C34.3544 12.0658 35.2137 10.3485 34.9449 9.61421C34.6899 8.91183 33.1081 9.09834 33.1081 9.09834L27.8459 9.13027C27.8459 9.13027 27.4556 9.07818 27.1663 9.2479C26.8838 9.41425 26.7007 9.80241 26.7007 9.80241C26.7007 9.80241 25.8687 11.9785 24.7577 13.8302C22.4142 17.7353 21.4778 17.942 21.0944 17.7C20.2025 17.1338 20.425 15.4282 20.425 14.2167C20.425 10.4309 21.0105 8.85301 19.2866 8.44469C18.7149 8.30858 18.2938 8.21952 16.8301 8.2044C14.9522 8.18592 13.3636 8.21112 12.4632 8.64297C11.8641 8.93031 11.4019 9.5722 11.6843 9.60917C12.0318 9.65454 12.8193 9.81753 13.237 10.3754C13.7762 11.0963 13.7574 12.7128 13.7574 12.7128C13.7574 12.7128 14.0672 17.1691 13.0332 17.7219C12.3245 18.1016 11.3522 17.327 9.26204 13.7832C8.19213 11.9684 7.38414 9.96204 7.38414 9.96204C7.38414 9.96204 7.22836 9.58733 6.94933 9.38568C6.61209 9.14203 6.14133 9.06642 6.14133 9.06642L1.14101 9.09834C1.14101 9.09834 0.389512 9.11851 0.113904 9.43946C-0.130891 9.72343 0.0950734 10.3132 0.0950734 10.3132C0.0950734 10.3132 4.01008 19.3048 8.44377 23.8367C12.5094 27.9905 17.1246 27.7183 17.1246 27.7183H19.2165Z" fill="#538ED1"/>
</svg>
