<svg width="114" height="60" viewBox="0 0 114 60" fill="none" xmlns="http://www.w3.org/2000/svg">
<g clip-path="url(#clip0_2003_913)">
<path fill-rule="evenodd" clip-rule="evenodd" d="M111.52 0.5C105.246 0.5 99.4013 2.26309 94.4714 5.29427C91.5527 7.08986 88.9548 9.32857 86.7845 11.9185C84.1389 10.0104 81.0882 8.60171 77.7816 7.82485C75.8863 7.37986 73.9087 7.13861 71.8722 7.13861C71.0364 7.13861 70.2099 7.17798 69.3945 7.25611C72.3765 7.54048 75.2011 8.33734 77.7816 9.54606C80.4327 10.7879 82.8218 12.4685 84.849 14.4928C85.9283 15.5709 86.9041 16.7459 87.7622 18.0034C88.3656 16.7865 89.0465 15.6134 89.803 14.4922C92.1462 11.0179 95.1908 8.02734 98.7489 5.71552C103.171 2.84058 108.38 1.00999 113.998 0.591873C113.18 0.531249 112.353 0.5 111.52 0.5Z" fill="#5899EC"/>
<path fill-rule="evenodd" clip-rule="evenodd" d="M70.6304 60.4998C66.913 60.4998 64.4348 56.7499 64.4348 53V28.0005H69.3913V54.2499C69.3913 55.5243 70.6304 56.7499 71.8696 56.7499H74.3478V28.0005H79.3044V60.4998H70.6304ZM54.5217 49.25C54.4468 47.9007 53.3954 46.7501 52.0435 46.7501H49.5652V60.4998H44.6087V28.0005H52.0435C57 28.0005 59.4783 31.7504 59.4783 35.5003V38.0003C59.4783 40.3352 58.6214 42.8377 57 44.2502C58.6214 45.6626 59.4783 48.1644 59.4783 50.5V60.4998H54.5217V49.25ZM52.0435 33.0004H49.5652V41.7502H52.0435C53.2826 41.7502 54.5217 40.5002 54.5217 36.7503C54.5217 34.2504 53.2826 33.0004 52.0435 33.0004ZM35.9348 55.4999H40.8913V60.4998H35.9348V55.4999ZM21.0652 28.0005H26.0217V55.4999H32.2174V60.4998H21.0652V28.0005ZM6.19565 60.4998L0 28.0005H4.95652L8.67391 48.0001L12.3913 28.0005H17.3478L11.1522 60.4998H6.19565Z" fill="#F97D41"/>
</g>
<defs>
<clipPath id="clip0_2003_913">
<rect width="114" height="60" fill="white"/>
</clipPath>
</defs>
</svg>
