<svg width="59" height="24" viewBox="0 0 59 24" fill="none" xmlns="http://www.w3.org/2000/svg">
<path fill-rule="evenodd" clip-rule="evenodd" d="M52.3767 24C49.6315 24 47.8014 21.2308 47.8014 18.4615V0H51.4617V19.3846C51.4617 20.3257 52.3767 21.2308 53.2918 21.2308H55.1219V0H58.7822V24H52.3767ZM40.4808 15.6923C40.4255 14.6958 39.649 13.8462 38.6507 13.8462H36.8205V24H33.1603V0H38.6507C42.311 0 44.1411 2.76923 44.1411 5.53846V7.38462C44.1411 9.10892 43.5083 10.9569 42.311 12C43.5083 13.0431 44.1411 14.8906 44.1411 16.6154V24H40.4808V15.6923ZM38.6507 3.69231H36.8205V10.1538H38.6507C39.5658 10.1538 40.4808 9.23077 40.4808 6.46154C40.4808 4.61539 39.5658 3.69231 38.6507 3.69231ZM26.7548 20.3077H30.4151V24H26.7548V20.3077ZM15.774 0H19.4342V20.3077H24.0096V24H15.774V0ZM4.79312 24L0.217773 0H3.87805L6.62326 14.7692L9.36847 0H13.0287L8.4534 24H4.79312Z" fill="#F97D41"/>
</svg>
