<svg width="35" height="36" viewBox="0 0 35 36" fill="none" xmlns="http://www.w3.org/2000/svg">
<path d="M17.504 2H17.496C8.674 2 1.5 9.176 1.5 18C1.5 21.5 2.628 24.744 4.546 27.378L2.552 33.322L8.702 31.356C11.232 33.032 14.25 34 17.504 34C26.326 34 33.5 26.822 33.5 18C33.5 9.178 26.326 2 17.504 2Z" fill="#00BB27"/>
<path d="M26.8139 24.5939C26.4279 25.6839 24.8959 26.5879 23.6739 26.8519C22.8379 27.0299 21.7459 27.1719 18.0699 25.6479C13.3679 23.6999 10.3399 18.9219 10.1039 18.6119C9.87786 18.3019 8.20386 16.0819 8.20386 13.7859C8.20386 11.4899 9.36986 10.3719 9.83986 9.89187C10.2259 9.49787 10.8639 9.31787 11.4759 9.31787C11.6739 9.31787 11.8519 9.32787 12.0119 9.33587C12.4819 9.35587 12.7179 9.38387 13.0279 10.1259C13.4139 11.0559 14.3539 13.3519 14.4659 13.5879C14.5799 13.8239 14.6939 14.1439 14.5339 14.4539C14.3839 14.7739 14.2519 14.9159 14.0159 15.1879C13.7799 15.4599 13.5559 15.6679 13.3199 15.9599C13.1039 16.2139 12.8599 16.4859 13.1319 16.9559C13.4039 17.4159 14.3439 18.9499 15.7279 20.1819C17.5139 21.7719 18.9619 22.2799 19.4799 22.4959C19.8659 22.6559 20.3259 22.6179 20.6079 22.3179C20.9659 21.9319 21.4079 21.2919 21.8579 20.6619C22.1779 20.2099 22.5819 20.1539 23.0059 20.3139C23.4379 20.4639 25.7239 21.5939 26.1939 21.8279C26.6639 22.0639 26.9739 22.1759 27.0879 22.3739C27.1999 22.5719 27.1999 23.5019 26.8139 24.5939Z" fill="#FAFAFA"/>
</svg>
