<svg width="84" height="24" viewBox="0 0 84 24" fill="none" xmlns="http://www.w3.org/2000/svg">
<path d="M79.2257 20.8979C80.8559 20.8979 82.0106 20.6036 82.8709 19.9696V17.0942C81.9879 17.7055 80.9238 18.0904 79.4294 18.0904C76.9162 18.0904 75.8747 16.1432 75.8747 13.064C75.8747 9.82623 77.1426 8.1734 79.4521 8.1734C80.8106 8.1734 82.1464 8.64887 82.8483 9.1017V6.11302C82.1011 5.70547 80.8106 5.41113 79.0445 5.41113C74.5389 5.41113 72.2068 8.64887 72.2068 13.1772C72.2294 18.1357 74.5162 20.8979 79.2257 20.8979ZM57.1955 19.5847V16.7092C56.1087 17.4564 54.2521 18.113 52.554 18.113C49.9728 18.113 48.9992 16.8904 48.8408 14.3998H57.354V12.5432C57.354 7.3583 55.0672 5.41113 51.5577 5.41113C47.2559 5.41113 45.2181 8.69415 45.2181 13.1998C45.2181 18.3847 47.7766 20.8979 52.2596 20.8979C54.5011 20.8979 56.154 20.2866 57.1955 19.5847ZM24.886 5.68283V11.5696H20.1766V5.68283H16.6445V20.6036H20.1766V14.3772H24.886V20.6036H28.4181V5.68283H24.886ZM44.3351 17.796H42.7728V5.68283H32.4936V6.95076C32.4936 10.596 32.2672 15.3055 31.0219 17.796H29.8898V23.9998H33.1502V20.6036H41.0521V23.9998H44.3125V17.796H44.3351ZM68.4483 20.6036H72.4559L66.7955 12.5658L71.7766 5.68283H68.2219L63.2408 12.5658V5.68283H59.7087V20.6036H63.2408V13.2677L68.4483 20.6036ZM51.4672 8.1734C53.2106 8.1734 53.754 9.62245 53.754 11.5017V11.796H48.8408C48.9313 9.41868 49.7917 8.1734 51.4672 8.1734ZM39.2408 17.796H34.2596C35.2332 15.5545 35.5049 11.4791 35.5049 8.89792V8.44509H39.2408V17.796Z" fill="white"/>
<path d="M13.702 20.6038H10.102V2.78491H8.49447C5.55108 2.78491 4.01145 4.2566 4.01145 6.45283C4.01145 8.9434 5.0756 10.0981 7.27183 11.5698L9.08315 12.7925L3.8756 20.6038H0.00390625L4.6907 13.6302C1.99636 11.7057 0.479378 9.82641 0.479378 6.6566C0.479378 2.69434 3.24164 0 8.47183 0H13.6794V20.6038H13.702Z" fill="#FC3F1D"/>
</svg>
